<?xml version="1.0" encoding="UTF-8" standalone="no"?>
<!DOCTYPE svg PUBLIC "-//W3C//DTD SVG 1.1//EN" "http://www.w3.org/Graphics/SVG/1.1/DTD/svg11.dtd">
<svg width="25" height="25" viewBox="0 0 25 25" version="1.1" xmlns="http://www.w3.org/2000/svg" xmlns:xlink="http://www.w3.org/1999/xlink" xml:space="preserve" xmlns:serif="http://www.serif.com/">
  <path style="fill:#02272b;fill-rule:nonzero;" d="M23.215,0l-21.435,0c-0.982,0.007 -1.785,0.82 -1.78,1.802l-0,21.396c-0.005,0.982 0.798,1.795 1.78,1.802l21.435,-0c0.983,-0.006 1.789,-0.818 1.786,-1.802l0,-21.396c0.003,-0.984 -0.803,-1.796 -1.786,-1.802Zm-15.654,21.429l-3.71,0l-0,-11.931l3.71,0l0,11.931Zm-1.858,-13.56c-1.178,-0.002 -2.145,-0.971 -2.145,-2.149c-0,-1.178 0.969,-2.148 2.148,-2.148c1.179,0 2.148,0.97 2.148,2.148c-0,1.179 -0.97,2.149 -2.149,2.149c-0.001,-0 -0.002,-0 -0.002,-0Zm15.742,13.56l-3.706,0l-0,-5.804c-0,-1.384 -0.028,-3.164 -1.925,-3.164c-1.931,-0 -2.227,1.506 -2.227,3.063l-0,5.904l-3.704,-0l0,-11.93l3.555,0l-0,1.63l0.049,-0c0.726,-1.237 2.077,-1.978 3.51,-1.925c3.751,-0 4.448,2.472 4.448,5.686l-0,6.54Z"/>
</svg>
