<?xml version="1.0" encoding="UTF-8" standalone="no"?>
<!DOCTYPE svg PUBLIC "-//W3C//DTD SVG 1.1//EN" "http://www.w3.org/Graphics/SVG/1.1/DTD/svg11.dtd">
<svg width="25" height="25" viewBox="0 0 25 25" version="1.1" xmlns="http://www.w3.org/2000/svg" xmlns:xlink="http://www.w3.org/1999/xlink" xml:space="preserve" xmlns:serif="http://www.serif.com/">
  <path style="fill:#515151;fill-rule:nonzero;" d="M5.595,25l-5.188,0l0,-16.692l5.188,-0l-0,16.692Zm-2.594,-18.969c-0.005,0 -0.009,0 -0.014,0c-1.654,0 -3.015,-1.361 -3.015,-3.015c-0,-1.655 1.361,-3.016 3.015,-3.016c1.649,0 3.008,1.353 3.015,3.001c0.002,1.652 -1.349,3.016 -3.001,3.03Zm21.993,18.969l-5.171,0l-0,-8.126c-0,-1.936 -0.039,-4.42 -2.696,-4.42c-2.695,0 -3.107,2.105 -3.107,4.279l-0,8.267l-5.177,-0l-0,-16.692l4.971,-0l0,2.286l0.074,-0c1.008,-1.734 2.897,-2.776 4.902,-2.704c5.244,-0 6.21,3.464 6.21,7.947l0,9.169l-0.006,-0.006Z" />
</svg>
