<?xml version="1.0" encoding="UTF-8" standalone="no"?>
<!DOCTYPE svg PUBLIC "-//W3C//DTD SVG 1.1//EN" "http://www.w3.org/Graphics/SVG/1.1/DTD/svg11.dtd">
<svg width="298" height="120" viewBox="0 0 298 120" version="1.1" xmlns="http://www.w3.org/2000/svg" xmlns:xlink="http://www.w3.org/1999/xlink" xml:space="preserve" xmlns:serif="http://www.serif.com/" style="fill-rule:evenodd;clip-rule:evenodd;stroke-linejoin:round;stroke-miterlimit:2;">
  <path d="M48.69,84.419l38.654,-59.902l-10.867,0l-32.876,50.854l-32.734,-50.848l-10.867,0l38.654,59.902l0.137,0l0,33.31l9.905,-0l-0,-33.31l-0.006,-0.006Z" style="fill:#fff;"/>
  <path d="M135.35,85.792c-0.137,-19.053 -12.794,-33.036 -30.95,-33.036c-19.392,0 -33.012,14.666 -33.012,33.31c-0,18.643 13.62,33.447 33.012,33.447c14.031,-0 25.171,-6.992 28.887,-17.818l-10.178,0c-2.889,6.035 -9.631,9.732 -18.429,9.732c-13.757,0 -22.419,-9.595 -23.798,-21.657l54.331,-0c0.137,-1.237 0.137,-2.604 0.137,-3.978Zm-31.223,-24.945c12.514,0 20.635,8.912 21.735,21.658l-44.98,-0c1.373,-11.926 9.904,-21.658 23.245,-21.658Z" style="fill:#fff;"/>
  <path d="M148.31,98.134l-8.804,0c2.062,14.393 13.067,21.658 29.576,21.658c15.546,-0 26.687,-7.265 26.687,-19.601c0,-12.336 -9.768,-16.039 -18.982,-17.543l-12.657,-2.194c-9.078,-1.373 -12.52,-5.071 -12.52,-9.869c-0,-6.171 6.188,-10.552 16.229,-10.552c10.731,-0 17.61,4.387 18.846,12.609l8.668,0c-1.1,-14.53 -14.583,-20.154 -27.514,-20.154c-15.266,0 -25.444,7.402 -25.444,18.781c-0,10.689 8.252,15.35 18.846,16.997l14.44,2.467c6.462,0.957 11.004,4.387 11.004,10.005c0,6.855 -7.015,11.242 -17.33,11.242c-12.377,0 -19.119,-5.208 -21.045,-13.846Z" style="fill:#fff;"/>
  <path id="amp" d="M297.441,32.852c2.116,-15.392 -7.657,-37.495 -26.022,-31.99c-6.783,2.033 -13.227,8.519 -13.322,15.968c-0.048,1.534 0.178,3.104 0.719,4.637c2.271,6.409 9.185,9.715 15.427,7.378c6.248,-2.33 9.471,-9.417 7.194,-15.825c-2.129,-5.999 -8.317,-9.281 -14.227,-7.759c2.818,-3.192 8.163,-4.048 11.908,-3.46c9.542,1.498 15.641,13.799 10.226,22.294c-1.826,2.866 -4.75,4.822 -7.794,6.225c-10.529,4.869 -23.281,7.264 -31.241,16.539c-7.693,8.959 -8.323,24.802 -3.793,35.503c1.801,4.263 4.607,8.157 8.459,10.677c4.614,3.015 10.351,3.597 15.63,2.289c0.523,-0.131 1.088,-0.291 1.665,-0.487c0.392,-0.107 0.784,-0.226 1.177,-0.375c1.189,-0.446 2.277,-1.046 3.252,-1.777c0.927,-0.636 1.735,-1.38 2.33,-2.224c2.955,-3.597 4.013,-8.674 2.33,-13.412c-2.502,-7.051 -10.1,-10.683 -16.973,-8.121c-6.872,2.569 -10.415,10.363 -7.912,17.413c1.605,4.53 5.32,7.646 9.595,8.621c-2.004,0.077 -4.031,-0.244 -6.076,-1.118c-8.121,-3.472 -12.556,-16.396 -8.965,-24.63c2.271,-5.196 7.193,-8.751 12.312,-10.481c6.022,-2.034 12.954,-1.903 18.739,0.553c2.3,1.01 4.453,2.395 6.272,4.173c0.755,0.737 1.456,1.54 2.075,2.402c3.483,4.797 4.547,11.194 3.471,17.074c-1.076,5.879 -4.143,11.254 -8.12,15.629c-6.433,7.075 -15.57,11.754 -25.005,11.801c-10.975,0.054 -19.845,-6.29 -25.528,-15.54c-3.805,-6.189 -6.129,-13.507 -5.582,-20.802c0.66,-8.899 3.787,-14.672 11.277,-18.899c-6.117,2.122 -13.685,-3.4 -17.246,-8.216c-3.674,-4.97 -5.232,-11.533 -4.191,-17.68c1.088,-6.445 5.855,-11.088 11.765,-13.139c3.971,-1.379 8.382,-1.682 12.336,-0.261c3.953,1.42 7.36,4.714 8.436,8.864c1.076,4.149 -0.488,10.534 -4.061,12.781c-3.573,2.248 -8.899,1.195 -11.016,-2.514c-0.915,-1.606 -1.201,-4.037 -0.648,-5.809c0.69,-2.223 3.038,-3.246 4.584,-2.069c-0.125,-1.183 -1.594,-2.306 -2.729,-2.568c-4.001,-0.909 -8.252,1.647 -10.178,5.357c-1.926,3.709 -1.135,8.691 1.837,11.586c3.632,3.544 9.536,3.544 14.102,1.427c4.096,-1.902 7.55,-5.416 9.006,-9.773c2.23,-6.671 0.399,-14.524 -7.449,-18.608c-10.82,-5.63 -25.73,2.895 -33.761,10.528c-4.275,4.061 -8.329,9.548 -9.197,15.457c-0.868,5.916 1.545,11.926 6.022,15.755c6.415,5.481 15.32,5.505 23.144,2.996c-3.276,1.736 -6.361,3.817 -9.619,6.819c-7.533,6.938 -14.881,14.654 -15.035,25.617c-0.125,8.876 4.28,17.692 11.385,22.763c7.9,5.642 18.28,6.469 27.763,4.78c14.648,-2.61 31.401,-8.46 41.478,-20.183c5.779,-6.724 9.227,-15.582 7.901,-24.606c-0.939,-6.356 -4.144,-12.33 -8.87,-16.551c-1.938,-1.73 -4.233,-3.145 -6.664,-4.091c4.185,-1.486 8.103,-3.537 11.325,-7.116c3.4,-3.769 5.368,-8.745 6.07,-13.828" style="fill:#c10230;fill-rule:nonzero;"/>
</svg>
