<?xml version="1.0" encoding="UTF-8" standalone="no"?>
<!DOCTYPE svg PUBLIC "-//W3C//DTD SVG 1.1//EN" "http://www.w3.org/Graphics/SVG/1.1/DTD/svg11.dtd">
<svg width="100%" height="100%" viewBox="0 0 239 300" version="1.1" xmlns="http://www.w3.org/2000/svg" xmlns:xlink="http://www.w3.org/1999/xlink" xml:space="preserve" xmlns:serif="http://www.serif.com/" style="fill-rule:evenodd;clip-rule:evenodd;stroke-linejoin:round;stroke-miterlimit:2;">
    <path d="M237.381,82.033c5.29,-38.428 -19.124,-93.619 -64.962,-79.885c-16.938,5.066 -33.033,21.266 -33.276,39.871c-0.114,3.843 0.443,7.757 1.809,11.581c5.672,15.986 22.924,24.243 38.519,18.419c15.605,-5.814 23.643,-23.514 17.958,-39.505c-5.315,-14.981 -20.786,-23.166 -35.534,-19.381c7.038,-7.966 20.386,-10.119 29.743,-8.647c23.829,3.747 39.052,34.452 25.529,55.666c-4.562,7.153 -11.857,12.038 -19.462,15.548c-26.295,12.167 -58.119,18.129 -78.01,41.3c-19.2,22.367 -20.785,61.919 -9.471,88.652c4.505,10.638 11.486,20.362 21.119,26.662c11.528,7.524 25.852,8.986 39.028,5.71c1.319,-0.324 2.719,-0.734 4.167,-1.219c0.972,-0.267 1.957,-0.567 2.929,-0.924c2.962,-1.114 5.685,-2.619 8.114,-4.433c2.319,-1.586 4.343,-3.443 5.824,-5.558c7.39,-8.985 10.019,-21.642 5.824,-33.485c-6.253,-17.6 -25.229,-26.676 -42.386,-20.272c-17.172,6.4 -26.014,25.862 -19.762,43.477c4.019,11.309 13.29,19.09 23.967,21.509c-4.991,0.186 -10.062,-0.6 -15.167,-2.79c-20.286,-8.672 -31.352,-40.939 -22.371,-61.491c5.661,-12.99 17.947,-21.857 30.742,-26.176c15.038,-5.072 32.334,-4.738 46.786,1.376c5.743,2.524 11.124,6 15.652,10.419c1.886,1.853 3.624,3.848 5.186,5.986c8.695,11.986 11.357,27.952 8.672,42.643c-2.686,14.681 -10.338,28.1 -20.286,39.028c-16.057,17.667 -38.876,29.338 -62.424,29.457c-27.386,0.139 -49.543,-15.7 -63.738,-38.8c-9.495,-15.457 -15.305,-33.728 -13.938,-51.938c1.652,-22.219 9.448,-36.633 28.157,-47.181c-15.286,5.291 -34.167,-8.495 -43.062,-20.504c-9.167,-12.424 -13.047,-28.805 -10.467,-44.148c2.71,-16.081 14.624,-27.667 29.386,-32.81c9.914,-3.438 20.934,-4.19 30.8,-0.647c9.876,3.543 18.362,11.762 21.057,22.124c2.7,10.376 -1.214,26.319 -10.143,31.919c-8.914,5.619 -22.204,2.976 -27.495,-6.286c-2.29,-4.005 -3,-10.071 -1.619,-14.495c1.724,-5.543 7.581,-8.105 11.448,-5.162c-0.324,-2.953 -3.981,-5.767 -6.805,-6.405c-9.995,-2.267 -20.609,4.1 -25.405,13.362c-4.814,9.262 -2.847,21.71 4.576,28.933c9.077,8.848 23.815,8.848 35.205,3.553c10.238,-4.757 18.862,-13.519 22.51,-24.405c5.557,-16.648 0.995,-36.271 -18.595,-46.462c-27.024,-14.067 -64.258,7.224 -84.31,26.281c-10.676,10.143 -20.805,23.838 -22.957,38.6c-2.181,14.752 3.843,29.757 15.038,39.319c16.024,13.7 38.252,13.743 57.786,7.481c-8.177,4.329 -15.877,9.529 -24.015,17.043c-18.8,17.333 -37.152,36.586 -37.533,63.957c-0.324,22.157 10.695,44.167 28.424,56.833c19.728,14.091 45.628,16.153 69.328,11.938c36.572,-6.528 78.415,-21.128 103.562,-50.385c14.429,-16.776 23.043,-38.915 19.729,-61.434c-2.348,-15.871 -10.338,-30.785 -22.157,-41.323c-4.843,-4.319 -10.562,-7.858 -16.638,-10.21c10.452,-3.719 20.223,-8.848 28.271,-17.771c8.486,-9.415 13.419,-21.838 15.157,-34.529" style="fill:#fff;fill-opacity:0.1;fill-rule:nonzero;"/>
</svg>
