<?xml version="1.0" encoding="UTF-8" standalone="no"?>
<!DOCTYPE svg PUBLIC "-//W3C//DTD SVG 1.1//EN" "http://www.w3.org/Graphics/SVG/1.1/DTD/svg11.dtd">
<svg width="219" height="14" viewBox="0 0 219 14" version="1.1" xmlns="http://www.w3.org/2000/svg" xmlns:xlink="http://www.w3.org/1999/xlink" xml:space="preserve" xmlns:serif="http://www.serif.com/" style="fill-rule:evenodd;clip-rule:evenodd;stroke-linejoin:round;stroke-miterlimit:2;">
  <path style="fill:#c10330" d="M219.001,7.209c-0,0.823 -0.678,1.5 -1.503,1.5l-215.994,0c-0.825,0 -1.503,-0.677 -1.503,-1.5c0,-0.823 0.678,-1.5 1.503,-1.5l215.994,0c0.825,0 1.503,0.677 1.503,1.5Z"/>
  <path style="fill:#c10330" d="M219,7.21c-0,0.409 -0.168,0.801 -0.465,1.084l-5.741,5.476c-0.279,0.267 -0.652,0.416 -1.038,0.416c-0.411,-0 -0.803,-0.168 -1.087,-0.464c-0.267,-0.279 -0.416,-0.651 -0.416,-1.037c-0,-0.409 0.168,-0.801 0.464,-1.084l4.609,-4.392l-4.609,-4.392c-0.296,-0.283 -0.464,-0.675 -0.464,-1.084c-0,-0.386 0.149,-0.758 0.416,-1.037c0.284,-0.296 0.676,-0.464 1.087,-0.464c0.386,0 0.759,0.149 1.038,0.416l5.742,5.477c0.297,0.283 0.464,0.675 0.464,1.085Z"/>
</svg>
