<?xml version="1.0" encoding="UTF-8" standalone="no"?>
<!DOCTYPE svg PUBLIC "-//W3C//DTD SVG 1.1//EN" "http://www.w3.org/Graphics/SVG/1.1/DTD/svg11.dtd">
<svg width="219" height="100" viewBox="0 0 219 100" version="1.1" xmlns="http://www.w3.org/2000/svg" xmlns:xlink="http://www.w3.org/1999/xlink" xml:space="preserve" xmlns:serif="http://www.serif.com/" style="fill-rule:evenodd;clip-rule:evenodd;stroke-linejoin:round;stroke-miterlimit:2;">
  <path d="M50,100c-27.596,-0 -50,-22.404 -50,-50c0,-27.596 22.404,-50 50,-50" style="fill:url(#_Linear1);"/>
  <path d="M79.045,100c-27.596,-0 -50,-22.404 -50,-50c0,-27.596 22.404,-50 50,-50" style="fill:url(#_Linear2);"/>
  <path d="M108.09,100c-27.596,-0 -50,-22.404 -50,-50c0,-27.596 22.404,-50 50,-50" style="fill:url(#_Linear3);"/>
  <path d="M137.136,100c-27.597,-0 -50.001,-22.404 -50.001,-50c0,-27.596 22.404,-50 50.001,-50" style="fill:url(#_Linear4);"/>
  <circle cx="168.421" cy="50" r="50" style="fill:#d2faf2;"/>
  <defs>
    <linearGradient id="_Linear1" x1="0" y1="0" x2="1" y2="0" gradientUnits="userSpaceOnUse" gradientTransform="matrix(-100,-1.22465e-14,1.22465e-14,-100,100,50)"><stop offset="0" style="stop-color:#e7fcf7;stop-opacity:0"/><stop offset="0.55" style="stop-color:#d2faf2;stop-opacity:0.21"/><stop offset="1" style="stop-color:#d2faf2;stop-opacity:1"/></linearGradient>
    <linearGradient id="_Linear2" x1="0" y1="0" x2="1" y2="0" gradientUnits="userSpaceOnUse" gradientTransform="matrix(-100,-1.22465e-14,1.22465e-14,-100,129.045,50)"><stop offset="0" style="stop-color:#e7fcf7;stop-opacity:0"/><stop offset="0.55" style="stop-color:#d2faf2;stop-opacity:0.21"/><stop offset="1" style="stop-color:#d2faf2;stop-opacity:1"/></linearGradient>
    <linearGradient id="_Linear3" x1="0" y1="0" x2="1" y2="0" gradientUnits="userSpaceOnUse" gradientTransform="matrix(-100,-1.22465e-14,1.22465e-14,-100,158.09,50)"><stop offset="0" style="stop-color:#e7fcf7;stop-opacity:0"/><stop offset="0.55" style="stop-color:#d2faf2;stop-opacity:0.21"/><stop offset="1" style="stop-color:#d2faf2;stop-opacity:1"/></linearGradient>
    <linearGradient id="_Linear4" x1="0" y1="0" x2="1" y2="0" gradientUnits="userSpaceOnUse" gradientTransform="matrix(-100,-1.22465e-14,1.22465e-14,-100,187.135,50)"><stop offset="0" style="stop-color:#e7fcf7;stop-opacity:0"/><stop offset="0.55" style="stop-color:#d2faf2;stop-opacity:0.21"/><stop offset="1" style="stop-color:#d2faf2;stop-opacity:1"/></linearGradient>
  </defs>
</svg>
