<?xml version="1.0" encoding="UTF-8" standalone="no"?>
<!DOCTYPE svg PUBLIC "-//W3C//DTD SVG 1.1//EN" "http://www.w3.org/Graphics/SVG/1.1/DTD/svg11.dtd">
<svg width="50" height="63" viewBox="0 0 50 63" version="1.1" xmlns="http://www.w3.org/2000/svg" xmlns:xlink="http://www.w3.org/1999/xlink" xml:space="preserve" xmlns:serif="http://www.serif.com/" style="fill-rule:evenodd;clip-rule:evenodd;stroke-linejoin:round;stroke-miterlimit:2;">
  <path d="M49.85,17.227c1.111,-8.07 -4.016,-19.66 -13.642,-16.776c-3.557,1.064 -6.937,4.466 -6.988,8.373c-0.024,0.807 0.093,1.629 0.38,2.432c1.191,3.357 4.814,5.091 8.089,3.868c3.277,-1.221 4.965,-4.938 3.771,-8.296c-1.116,-3.146 -4.365,-4.865 -7.462,-4.07c1.478,-1.673 4.281,-2.125 6.246,-1.816c5.004,0.787 8.201,7.235 5.361,11.69c-0.958,1.502 -2.49,2.528 -4.087,3.265c-5.522,2.555 -12.205,3.807 -16.382,8.673c-4.032,4.697 -4.365,13.003 -1.989,18.617c0.946,2.234 2.412,4.276 4.435,5.599c2.421,1.58 5.429,1.887 8.196,1.199c0.277,-0.068 0.571,-0.154 0.875,-0.256c0.204,-0.056 0.411,-0.119 0.615,-0.194c0.622,-0.234 1.194,-0.55 1.704,-0.931c0.487,-0.333 0.912,-0.723 1.223,-1.167c1.552,-1.887 2.104,-4.545 1.223,-7.032c-1.313,-3.696 -5.298,-5.602 -8.901,-4.257c-3.606,1.344 -5.463,5.431 -4.15,9.13c0.844,2.375 2.791,4.009 5.033,4.517c-1.048,0.039 -2.113,-0.126 -3.185,-0.586c-4.26,-1.821 -6.584,-8.597 -4.698,-12.913c1.189,-2.728 3.769,-4.59 6.456,-5.497c3.158,-1.065 6.79,-0.995 9.825,0.289c1.206,0.53 2.336,1.26 3.287,2.188c0.396,0.389 0.761,0.808 1.089,1.257c1.826,2.517 2.385,5.87 1.821,8.955c-0.564,3.083 -2.171,5.901 -4.26,8.196c-3.372,3.71 -8.164,6.161 -13.109,6.186c-5.751,0.029 -10.404,-3.297 -13.385,-8.148c-1.994,-3.246 -3.214,-7.083 -2.927,-10.907c0.347,-4.666 1.984,-7.693 5.913,-9.908c-3.21,1.111 -7.175,-1.784 -9.043,-4.306c-1.925,-2.609 -2.74,-6.049 -2.198,-9.271c0.569,-3.377 3.071,-5.81 6.171,-6.89c2.082,-0.722 4.396,-0.88 6.468,-0.136c2.074,0.744 3.856,2.47 4.422,4.646c0.567,2.179 -0.255,5.527 -2.13,6.703c-1.872,1.18 -4.663,0.625 -5.774,-1.32c-0.481,-0.841 -0.63,-2.115 -0.34,-3.044c0.362,-1.164 1.592,-1.702 2.404,-1.084c-0.068,-0.62 -0.836,-1.211 -1.429,-1.345c-2.099,-0.476 -4.328,0.861 -5.335,2.806c-1.011,1.945 -0.598,4.559 0.961,6.076c1.906,1.858 5.001,1.858 7.393,0.746c2.15,-0.999 3.961,-2.839 4.727,-5.125c1.167,-3.496 0.209,-7.617 -3.905,-9.757c-5.675,-2.954 -13.494,1.517 -17.705,5.519c-2.242,2.13 -4.369,5.006 -4.821,8.106c-0.458,3.098 0.807,6.249 3.158,8.257c3.365,2.877 8.033,2.886 12.135,1.571c-1.717,0.909 -3.334,2.001 -5.043,3.579c-3.948,3.64 -7.802,7.683 -7.882,13.431c-0.068,4.653 2.246,9.275 5.969,11.935c4.143,2.959 9.582,3.392 14.559,2.507c7.68,-1.371 16.467,-4.437 21.748,-10.581c3.03,-3.523 4.839,-8.172 4.143,-12.901c-0.493,-3.333 -2.171,-6.465 -4.653,-8.678c-1.017,-0.907 -2.218,-1.65 -3.494,-2.144c2.195,-0.781 4.247,-1.858 5.937,-3.732c1.782,-1.977 2.818,-4.586 3.183,-7.251" style="fill:#fff;fill-rule:nonzero;"/>
</svg>
