<?xml version="1.0" encoding="UTF-8" standalone="no"?>
<!DOCTYPE svg PUBLIC "-//W3C//DTD SVG 1.1//EN" "http://www.w3.org/Graphics/SVG/1.1/DTD/svg11.dtd">
<svg width="100" height="47" viewBox="0 0 100 47" version="1.1" xmlns="http://www.w3.org/2000/svg" xmlns:xlink="http://www.w3.org/1999/xlink" xml:space="preserve" xmlns:serif="http://www.serif.com/" style="fill-rule:evenodd;clip-rule:evenodd;stroke-linejoin:round;stroke-miterlimit:2;">
	<path style="fill: white" id="Y" d="M27.272,12.146l2.358,0l-13.805,19.952l-0,14.374l-2.117,0l0,-14.374l-13.708,-19.952l2.405,0l12.41,18.172l12.457,-18.172" />
	<path style="fill: white" id="e" d="M21.918,34.302l-0,0.288c-0,1.444 0.19,2.823 0.573,4.137c0.383,1.315 0.948,2.469 1.697,3.463c0.749,0.994 1.689,1.78 2.821,2.357c1.13,0.577 2.445,0.865 3.944,0.865c2.453,0 4.398,-0.649 5.832,-1.947c1.434,-1.299 2.422,-3.103 2.964,-5.411l1.812,-0c-0.541,2.885 -1.709,5.098 -3.505,6.637c-1.796,1.539 -4.171,2.309 -7.127,2.309c-1.812,0 -3.394,-0.33 -4.744,-0.986c-1.352,-0.657 -2.479,-1.555 -3.385,-2.694c-0.906,-1.137 -1.582,-2.485 -2.027,-4.04c-0.445,-1.555 -0.667,-3.23 -0.667,-5.026c-0,-1.732 0.23,-3.391 0.691,-4.978c0.461,-1.587 1.152,-2.982 2.074,-4.185c0.922,-1.202 2.074,-2.164 3.457,-2.885c1.383,-0.722 3.011,-1.082 4.887,-1.082c1.716,-0 3.233,0.321 4.553,0.961c1.318,0.642 2.423,1.515 3.314,2.622c0.889,1.106 1.564,2.389 2.026,3.848c0.46,1.459 0.691,3.022 0.691,4.689l-0.048,1.058l-19.833,0Zm18.022,-1.587c-0.064,-1.347 -0.287,-2.622 -0.67,-3.824c-0.382,-1.202 -0.948,-2.26 -1.696,-3.174c-0.75,-0.914 -1.658,-1.643 -2.725,-2.189c-1.069,-0.545 -2.287,-0.817 -3.658,-0.817c-1.465,-0 -2.756,0.281 -3.872,0.841c-1.116,0.562 -2.056,1.299 -2.82,2.213c-0.765,0.914 -1.354,1.98 -1.768,3.198c-0.415,1.219 -0.67,2.47 -0.765,3.752l17.974,-0Z" />
	<path style="fill: white" id="s" d="M44.147,38.198c0.063,1.154 0.318,2.173 0.766,3.054c0.446,0.883 1.028,1.635 1.747,2.261c0.718,0.625 1.556,1.098 2.513,1.419c0.957,0.321 1.994,0.48 3.111,0.48c0.797,0 1.651,-0.072 2.561,-0.216c0.909,-0.144 1.754,-0.409 2.537,-0.793c0.781,-0.386 1.427,-0.922 1.938,-1.612c0.51,-0.689 0.766,-1.563 0.766,-2.621c-0,-1.378 -0.415,-2.421 -1.244,-3.126c-0.831,-0.705 -1.876,-1.251 -3.136,-1.636c-1.261,-0.385 -2.616,-0.697 -4.068,-0.937c-1.452,-0.241 -2.809,-0.602 -4.069,-1.083c-1.261,-0.481 -2.306,-1.162 -3.135,-2.044c-0.83,-0.882 -1.245,-2.172 -1.245,-3.871c0,-1.219 0.271,-2.237 0.814,-3.055c0.542,-0.818 1.236,-1.467 2.082,-1.948c0.846,-0.481 1.795,-0.825 2.849,-1.034c1.052,-0.208 2.105,-0.312 3.159,-0.312c1.275,-0 2.472,0.144 3.589,0.432c1.117,0.289 2.083,0.754 2.896,1.395c0.814,0.642 1.452,1.46 1.915,2.453c0.462,0.994 0.694,2.197 0.694,3.607l-1.819,0c0,-1.122 -0.184,-2.084 -0.551,-2.886c-0.367,-0.801 -0.877,-1.45 -1.531,-1.947c-0.655,-0.497 -1.429,-0.866 -2.322,-1.107c-0.894,-0.24 -1.851,-0.36 -2.871,-0.36c-0.83,-0 -1.668,0.08 -2.514,0.24c-0.845,0.161 -1.603,0.433 -2.273,0.818c-0.67,0.384 -1.221,0.882 -1.651,1.491c-0.431,0.609 -0.647,1.346 -0.647,2.213c0,0.994 0.24,1.795 0.719,2.404c0.478,0.61 1.108,1.099 1.89,1.467c0.781,0.369 1.659,0.666 2.633,0.89c0.973,0.224 1.954,0.449 2.943,0.673c1.212,0.225 2.353,0.49 3.423,0.794c1.068,0.305 1.994,0.721 2.776,1.25c0.782,0.529 1.395,1.211 1.843,2.045c0.446,0.834 0.67,1.892 0.67,3.174c-0,1.347 -0.304,2.453 -0.91,3.319c-0.606,0.865 -1.372,1.563 -2.297,2.092c-0.926,0.529 -1.955,0.897 -3.087,1.106c-1.133,0.208 -2.243,0.313 -3.327,0.313c-1.404,0 -2.705,-0.185 -3.901,-0.554c-1.197,-0.368 -2.242,-0.929 -3.135,-1.683c-0.894,-0.753 -1.596,-1.675 -2.106,-2.766c-0.511,-1.089 -0.783,-2.356 -0.814,-3.799l1.819,0Z" />
	<path style="fill: #c10330" id="ampersand" d="M97.437,18.143c1.367,-1.483 2.161,-3.441 2.442,-5.442c0.853,-6.057 -2.838,-14.52 -10.228,-12.355c-2.73,0.8 -5.324,3.353 -5.363,6.286c-0.02,0.604 0.071,1.222 0.29,1.824c0.915,2.523 3.695,3.823 6.209,2.905c2.514,-0.918 3.811,-3.707 2.895,-6.229c-0.856,-2.361 -3.348,-3.652 -5.725,-3.053c0.022,-0.027 0.044,-0.052 0.067,-0.078c1.067,-1.178 3.217,-1.517 4.726,-1.285c3.84,0.591 6.052,5.194 3.872,8.538c-0.735,1.128 -1.911,1.897 -3.136,2.451c-4.237,1.916 -9.368,2.859 -12.572,6.509c-3.096,3.527 -3.471,9.053 -1.648,13.265c0.726,1.677 1.853,3.211 3.405,4.202c1.857,1.187 4.165,1.417 6.289,0.901c0.211,-0.051 0.438,-0.115 0.67,-0.192c0.158,-0.042 0.316,-0.09 0.473,-0.147c0.478,-0.175 0.916,-0.412 1.308,-0.699c0.373,-0.251 0.7,-0.542 0.939,-0.876c1.19,-1.416 1.614,-3.412 0.937,-5.277c-1.006,-2.775 -4.064,-4.205 -6.83,-3.196c-2.765,1.01 -4.191,4.078 -3.185,6.853c0.648,1.783 2.143,3.009 3.862,3.391c-0.805,0.03 -1.621,-0.095 -2.445,-0.44c-3.268,-1.367 -4.931,-5.745 -3.485,-8.984c0.913,-2.046 2.894,-3.446 4.956,-4.126c2.423,-0.799 5.212,-0.747 7.541,0.218c0.927,0.397 1.792,0.944 2.523,1.642c0.304,0.291 0.585,0.607 0.836,0.945c1.403,1.888 1.83,4.405 1.397,6.72c-0.432,2.314 -1.667,4.428 -3.268,6.15c-2.589,2.785 -6.265,4.627 -10.061,4.644c-4.415,0.02 -7.985,-2.475 -10.273,-6.115c-1.531,-2.437 -2.466,-5.317 -2.247,-8.188c0.267,-3.503 1.523,-5.776 4.538,-7.438c-0.002,0.001 -0.004,0.001 -0.006,0.002c0.004,-0.002 0.008,-0.004 0.012,-0.007c-0.002,0.001 -0.004,0.001 -0.005,0.002c-2.463,0.837 -5.51,-1.335 -6.941,-3.23c-1.478,-1.957 -2.105,-4.539 -1.687,-6.959c0.438,-2.536 2.356,-4.362 4.736,-5.171c1.597,-0.543 3.373,-0.662 4.964,-0.103c1.591,0.56 2.96,1.855 3.395,3.489c0.435,1.634 -0.197,3.557 -1.634,4.441c-1.438,0.883 -3.581,0.47 -4.432,-0.99c-0.369,-0.632 -0.482,-1.589 -0.261,-2.285c0.278,-0.876 1.222,-1.278 1.844,-0.815c-0.05,-0.466 -0.641,-0.909 -1.097,-1.01c-1.61,-0.358 -3.32,0.647 -4.095,2.108c-0.774,1.46 -0.456,3.421 0.739,4.56c1.462,1.394 3.836,1.395 5.674,0.56c1.648,-0.748 3.04,-2.13 3.626,-3.847c0.896,-2.624 -0.448,-5.663 -2.997,-6.734c-4.459,-1.872 -10.354,1.141 -13.587,4.144c-1.721,1.599 -3.057,3.697 -3.406,6.025c-0.349,2.327 0.403,4.875 2.205,6.381c2.581,2.158 6.089,2.044 9.236,1.057c-1.318,0.683 -2.559,1.502 -3.871,2.685c-3.03,2.732 -5.988,5.769 -6.051,10.082c-0.051,3.494 1.723,6.964 4.582,8.96c3.18,2.22 7.355,2.547 11.173,1.881c5.894,-1.028 12.636,-3.33 16.69,-7.943c2.325,-2.645 3.714,-6.134 3.179,-9.684c-0.377,-2.501 -1.666,-4.853 -3.57,-6.513c-0.781,-0.681 -1.703,-1.238 -2.681,-1.609c1.683,-0.586 3.26,-1.394 4.557,-2.801"/>
</svg>
