<?xml version="1.0" encoding="UTF-8"?>
<svg xmlns="http://www.w3.org/2000/svg" viewBox="0 0 504 504" width="504" height="504">
	<path class="cls-4" style="fill: #c10330" d="m298.5,1c-15.82,0-31.21,1.8-46,5.2-49.9,11.47-92.83,41.21-121.37,81.79,33.87-25.11,75.8-39.96,121.19-39.96s87.92,15.06,121.92,40.49c15.94,11.92,30.06,26.13,41.91,42.13,40.45,28.51,70.11,71.31,81.6,121.06,3.43-14.85,5.24-30.32,5.24-46.21C503,92.56,411.44,1,298.5,1Z" />
	<path class="cls-6" style="fill: #4cecc9" d="m206.5,1C93.56,1,2,92.56,2,205.5c0,15.89,1.81,31.36,5.24,46.21,11.41,49.4,40.72,91.95,80.73,120.45-24.76-33.73-39.39-75.36-39.39-120.41s14.69-86.83,39.53-120.6c12.1-16.45,26.61-31.02,43.02-43.18C159.67,47.4,202.6,17.67,252.5,6.2c-14.79-3.4-30.18-5.2-46-5.2Z" />
	<path class="cls-2" style="fill: #ffbf00" d="m497.76,251.71c-11.49-49.76-41.15-92.56-81.6-121.06,25.07,33.86,39.89,75.75,39.89,121.11s-14.78,87.1-39.76,120.93c-11.9,16.11-26.12,30.42-42.17,42.41-28.54,40.76-71.57,70.63-121.62,82.14,14.79,3.4,30.18,5.2,46,5.2,112.94,0,204.5-91.56,204.5-204.5,0-15.89-1.81-31.36-5.24-46.21Z" />
	<path class="cls-5" style="fill: #76726f" d="m252.32,455.49c-45.34,0-87.22-14.82-121.07-39.87-16.52-12.22-31.12-26.89-43.28-43.46-40.01-28.5-69.32-71.05-80.73-120.45-3.43,14.85-5.24,30.32-5.24,46.21,0,112.94,91.56,204.5,204.5,204.5,15.82,0,31.21-1.8,46-5.2,50.05-11.5,93.07-41.38,121.62-82.14-33.97,25.38-76.13,40.4-121.79,40.4Z" />
	<path class="cls-3" style="fill: #02272b" d="m48.59,251.76c0-112.52,91.22-203.74,203.74-203.74s203.72,91.22,203.72,203.74-91.21,203.74-203.72,203.74S48.59,364.28,48.59,251.76" />
	<path class="cls-1" style="fill: #ffffff" d="m354.52,193.22c4.57-33.19-16.52-80.86-56.11-69-14.63,4.38-28.53,18.37-28.74,34.44-.1,3.32.38,6.7,1.56,10,4.9,13.81,19.8,20.94,33.27,15.91,13.48-5.02,20.42-20.31,15.51-34.12-4.59-12.94-17.95-20.01-30.69-16.74,6.08-6.88,17.61-8.74,25.69-7.47,20.58,3.24,33.73,29.76,22.05,48.08-3.94,6.18-10.24,10.4-16.81,13.43-22.71,10.51-50.2,15.66-67.38,35.67-16.58,19.32-17.95,53.48-8.18,76.57,3.89,9.19,9.92,17.59,18.24,23.03,9.96,6.5,22.33,7.76,33.71,4.93,1.14-.28,2.35-.63,3.6-1.05.84-.23,1.69-.49,2.53-.8,2.56-.96,4.91-2.26,7.01-3.83,2-1.37,3.75-2.97,5.03-4.8,6.38-7.76,8.65-18.69,5.03-28.92-5.4-15.2-21.79-23.04-36.61-17.51-14.83,5.53-22.47,22.34-17.07,37.55,3.47,9.77,11.48,16.49,20.7,18.58-4.31.16-8.69-.52-13.1-2.41-17.52-7.49-27.08-35.36-19.32-53.11,4.89-11.22,15.5-18.88,26.55-22.61,12.99-4.38,27.93-4.09,40.41,1.19,4.96,2.18,9.61,5.18,13.52,9,1.63,1.6,3.13,3.32,4.48,5.17,7.51,10.35,9.81,24.14,7.49,36.83-2.32,12.68-8.93,24.27-17.52,33.71-13.87,15.26-33.58,25.34-53.92,25.44-23.65.12-42.79-13.56-55.05-33.51-8.2-13.35-13.22-29.13-12.04-44.86,1.43-19.19,8.16-31.64,24.32-40.75-13.2,4.57-29.51-7.34-37.19-17.71-7.92-10.73-11.27-24.88-9.04-38.13,2.34-13.89,12.63-23.9,25.38-28.34,8.56-2.97,18.08-3.62,26.6-.56,8.53,3.06,15.86,10.16,18.19,19.11,2.33,8.96-1.05,22.73-8.76,27.57-7.7,4.85-19.18,2.57-23.75-5.43-1.98-3.46-2.59-8.7-1.4-12.52,1.49-4.79,6.55-7,9.89-4.46-.28-2.55-3.44-4.98-5.88-5.53-8.63-1.96-17.8,3.54-21.94,11.54-4.16,8-2.46,18.75,3.95,24.99,7.84,7.64,20.57,7.64,30.41,3.07,8.84-4.11,16.29-11.68,19.44-21.08,4.8-14.38.86-31.33-16.06-40.13-23.34-12.15-55.5,6.24-72.82,22.7-9.22,8.76-17.97,20.59-19.83,33.34-1.88,12.74,3.32,25.7,12.99,33.96,13.84,11.83,33.04,11.87,49.91,6.46-7.06,3.74-13.71,8.23-20.74,14.72-16.24,14.97-32.09,31.6-32.42,55.24-.28,19.14,9.24,38.15,24.55,49.09,17.04,12.17,39.41,13.95,59.88,10.31,31.59-5.64,67.73-18.25,89.45-43.52,12.46-14.49,19.9-33.61,17.04-53.06-2.03-13.71-8.93-26.59-19.14-35.69-4.18-3.73-9.12-6.79-14.37-8.82,9.03-3.21,17.47-7.64,24.42-15.35,7.33-8.13,11.59-18.86,13.09-29.82" />
</svg>
