<?xml version="1.0" encoding="UTF-8" standalone="no"?>
<!DOCTYPE svg PUBLIC "-//W3C//DTD SVG 1.1//EN" "http://www.w3.org/Graphics/SVG/1.1/DTD/svg11.dtd">
<svg width="147" height="147" viewBox="0 0 147 147" version="1.1" xmlns="http://www.w3.org/2000/svg" xmlns:xlink="http://www.w3.org/1999/xlink" xml:space="preserve" xmlns:serif="http://www.serif.com/" style="fill-rule:evenodd;clip-rule:evenodd;stroke-linejoin:round;stroke-miterlimit:2;">
  <circle id="background" cx="73.5" cy="73.5" r="73.5" style="fill:#02272b;"/>
  <path id="pictogram" d="M117.725,47.026c2.067,-15.011 -7.47,-36.57 -25.375,-31.205c-6.616,1.979 -12.904,8.307 -12.998,15.574c-0.045,1.502 0.173,3.031 0.706,4.524c2.216,6.245 8.955,9.47 15.047,7.195c6.095,-2.271 9.235,-9.185 7.014,-15.431c-2.076,-5.852 -8.119,-9.05 -13.88,-7.571c2.749,-3.112 7.963,-3.953 11.618,-3.378c9.308,1.464 15.255,13.458 9.972,21.745c-1.782,2.794 -4.631,4.702 -7.602,6.073c-10.271,4.752 -22.702,7.081 -30.472,16.132c-7.5,8.737 -8.119,24.187 -3.7,34.63c1.76,4.155 4.487,7.954 8.25,10.414c4.503,2.939 10.098,3.51 15.245,2.231c0.515,-0.127 1.062,-0.287 1.628,-0.476c0.379,-0.105 0.764,-0.222 1.144,-0.361c1.157,-0.436 2.221,-1.023 3.169,-1.732c0.906,-0.619 1.697,-1.345 2.275,-2.171c2.887,-3.51 3.914,-8.454 2.275,-13.08c-2.442,-6.875 -9.855,-10.42 -16.557,-7.918c-6.707,2.5 -10.161,10.102 -7.719,16.982c1.57,4.418 5.191,7.457 9.362,8.402c-1.95,0.073 -3.931,-0.234 -5.925,-1.09c-7.924,-3.387 -12.246,-15.991 -8.738,-24.019c2.211,-5.074 7.01,-8.538 12.008,-10.225c5.875,-1.981 12.63,-1.851 18.276,0.538c2.243,0.985 4.345,2.343 6.114,4.069c0.737,0.724 1.415,1.503 2.026,2.339c3.396,4.681 4.436,10.918 3.387,16.657c-1.049,5.734 -4.038,10.976 -7.924,15.245c-6.272,6.901 -15.186,11.46 -24.384,11.507c-10.697,0.053 -19.352,-6.133 -24.897,-15.157c-3.709,-6.037 -5.979,-13.175 -5.445,-20.288c0.646,-8.679 3.691,-14.309 10.999,-18.429c-5.971,2.066 -13.346,-3.319 -16.821,-8.01c-3.581,-4.853 -5.097,-11.252 -4.088,-17.245c1.058,-6.281 5.712,-10.807 11.478,-12.816c3.873,-1.343 8.177,-1.637 12.031,-0.253c3.858,1.384 7.173,4.595 8.226,8.642c1.054,4.053 -0.475,10.281 -3.962,12.468c-3.483,2.195 -8.674,1.163 -10.741,-2.455c-0.894,-1.564 -1.171,-3.934 -0.632,-5.662c0.673,-2.165 2.961,-3.166 4.472,-2.016c-0.127,-1.154 -1.555,-2.253 -2.658,-2.502c-3.905,-0.886 -8.051,1.601 -9.924,5.219c-1.881,3.618 -1.112,8.48 1.787,11.302c3.546,3.456 9.303,3.456 13.752,1.388c3.999,-1.858 7.368,-5.281 8.793,-9.533c2.171,-6.503 0.389,-14.169 -7.264,-18.149c-10.556,-5.495 -25.1,2.822 -32.933,10.266c-4.17,3.962 -8.127,9.311 -8.967,15.078c-0.852,5.762 1.501,11.623 5.874,15.358c6.259,5.352 14.942,5.369 22.572,2.923c-3.194,1.69 -6.201,3.722 -9.38,6.657c-7.344,6.771 -14.513,14.291 -14.662,24.983c-0.126,8.655 4.178,17.252 11.103,22.2c7.707,5.504 17.824,6.309 27.081,4.663c14.286,-2.55 30.63,-8.253 40.454,-19.681c5.636,-6.554 9.001,-15.201 7.706,-23.997c-0.917,-6.2 -4.038,-12.026 -8.655,-16.142c-1.892,-1.687 -4.126,-3.069 -6.499,-3.988c4.083,-1.453 7.9,-3.456 11.043,-6.942c3.315,-3.678 5.242,-8.531 5.921,-13.488" style="fill:#fff;fill-rule:nonzero;"/>
</svg>
