<?xml version="1.0" encoding="UTF-8" standalone="no"?>
<!DOCTYPE svg PUBLIC "-//W3C//DTD SVG 1.1//EN" "http://www.w3.org/Graphics/SVG/1.1/DTD/svg11.dtd">
<svg width="100%" height="100%" viewBox="0 0 518 378" version="1.1" xmlns="http://www.w3.org/2000/svg" xmlns:xlink="http://www.w3.org/1999/xlink" xml:space="preserve" xmlns:serif="http://www.serif.com/" style="fill-rule:evenodd;clip-rule:evenodd;stroke-linejoin:round;stroke-miterlimit:2;">
    <g>
        <path d="M0,0c104.237,0 188.865,84.627 188.865,188.865c0,104.237 -84.628,188.864 -188.865,188.864" style="fill:url(#_Radial1);"/>
    </g>
    <g>
        <path d="M109.712,-0c104.237,-0 188.865,84.627 188.865,188.865c-0,104.237 -84.628,188.864 -188.865,188.864" style="fill:url(#_Radial2);"/>
    </g>
    <g>
        <path d="M219.423,-0c104.237,-0 188.865,84.627 188.865,188.865c0,104.237 -84.628,188.864 -188.865,188.864" style="fill:url(#_Radial3);"/>
    </g>
    <g>
        <path d="M329.135,-0c104.237,-0 188.865,84.627 188.865,188.865c0,104.237 -84.628,188.864 -188.865,188.864" style="fill:url(#_Radial4);"/>
    </g>
    <defs>
        <radialGradient id="_Radial1" cx="0" cy="0" r="1" gradientUnits="userSpaceOnUse" gradientTransform="matrix(-109.712,-171.503,147.762,-94.5243,188.865,188.865)"><stop offset="0" style="stop-color:#efefef;stop-opacity:1"/><stop offset="1" style="stop-color:#e0e0e0;stop-opacity:0"/></radialGradient>
        <radialGradient id="_Radial2" cx="0" cy="0" r="1" gradientUnits="userSpaceOnUse" gradientTransform="matrix(-109.712,-171.503,147.762,-94.5243,298.577,188.865)"><stop offset="0" style="stop-color:#efefef;stop-opacity:1"/><stop offset="1" style="stop-color:#e0e0e0;stop-opacity:0"/></radialGradient>
        <radialGradient id="_Radial3" cx="0" cy="0" r="1" gradientUnits="userSpaceOnUse" gradientTransform="matrix(-109.712,-171.503,147.762,-94.5243,408.288,188.865)"><stop offset="0" style="stop-color:#efefef;stop-opacity:1"/><stop offset="1" style="stop-color:#e0e0e0;stop-opacity:0"/></radialGradient>
        <radialGradient id="_Radial4" cx="0" cy="0" r="1" gradientUnits="userSpaceOnUse" gradientTransform="matrix(-109.712,-171.503,147.762,-94.5243,518,188.865)"><stop offset="0" style="stop-color:#efefef;stop-opacity:1"/><stop offset="1" style="stop-color:#e0e0e0;stop-opacity:0"/></radialGradient>
    </defs>
</svg>
